G04 #@! TF.GenerationSoftware,KiCad,Pcbnew,9.0.1*
G04 #@! TF.CreationDate,2025-04-14T15:22:14-05:00*
G04 #@! TF.ProjectId,cjm6842,636a6d36-3834-4322-9e6b-696361645f70,v1.0.1*
G04 #@! TF.SameCoordinates,Original*
G04 #@! TF.FileFunction,Copper,L2,Bot*
G04 #@! TF.FilePolarity,Positive*
%FSLAX46Y46*%
G04 Gerber Fmt 4.6, Leading zero omitted, Abs format (unit mm)*
G04 Created by KiCad (PCBNEW 9.0.1) date 2025-04-14 15:22:14*
%MOMM*%
%LPD*%
G01*
G04 APERTURE LIST*
G04 #@! TA.AperFunction,ComponentPad*
%ADD10C,2.000000*%
G04 #@! TD*
G04 #@! TA.AperFunction,WasherPad*
%ADD11C,2.700000*%
G04 #@! TD*
G04 #@! TA.AperFunction,ComponentPad*
%ADD12R,1.750000X1.750000*%
G04 #@! TD*
G04 #@! TA.AperFunction,ComponentPad*
%ADD13C,1.750000*%
G04 #@! TD*
G04 #@! TA.AperFunction,ComponentPad*
%ADD14C,1.400000*%
G04 #@! TD*
G04 #@! TA.AperFunction,ComponentPad*
%ADD15O,1.400000X1.400000*%
G04 #@! TD*
G04 #@! TA.AperFunction,ComponentPad*
%ADD16C,1.700000*%
G04 #@! TD*
G04 #@! TA.AperFunction,ComponentPad*
%ADD17O,1.700000X1.700000*%
G04 #@! TD*
G04 #@! TA.AperFunction,ComponentPad*
%ADD18O,1.600000X1.600000*%
G04 #@! TD*
G04 #@! TA.AperFunction,ComponentPad*
%ADD19C,1.600000*%
G04 #@! TD*
G04 #@! TA.AperFunction,ComponentPad*
%ADD20C,1.800000*%
G04 #@! TD*
G04 #@! TA.AperFunction,ComponentPad*
%ADD21R,1.800000X1.800000*%
G04 #@! TD*
G04 #@! TA.AperFunction,ComponentPad*
%ADD22R,1.700000X1.700000*%
G04 #@! TD*
G04 #@! TA.AperFunction,ComponentPad*
%ADD23R,1.600000X2.400000*%
G04 #@! TD*
G04 #@! TA.AperFunction,ComponentPad*
%ADD24O,1.600000X2.400000*%
G04 #@! TD*
G04 #@! TA.AperFunction,ComponentPad*
%ADD25R,1.600000X1.600000*%
G04 #@! TD*
G04 #@! TA.AperFunction,ComponentPad*
%ADD26C,4.318000*%
G04 #@! TD*
G04 #@! TA.AperFunction,ComponentPad*
%ADD27R,2.032000X2.032000*%
G04 #@! TD*
G04 #@! TA.AperFunction,ComponentPad*
%ADD28C,2.032000*%
G04 #@! TD*
G04 #@! TA.AperFunction,WasherPad*
%ADD29C,3.810000*%
G04 #@! TD*
G04 #@! TA.AperFunction,ComponentPad*
%ADD30R,1.778000X1.778000*%
G04 #@! TD*
G04 #@! TA.AperFunction,ComponentPad*
%ADD31C,1.778000*%
G04 #@! TD*
G04 #@! TA.AperFunction,ComponentPad*
%ADD32C,1.520000*%
G04 #@! TD*
G04 #@! TA.AperFunction,ComponentPad*
%ADD33R,1.520000X1.520000*%
G04 #@! TD*
G04 #@! TA.AperFunction,ViaPad*
%ADD34C,0.800000*%
G04 #@! TD*
G04 #@! TA.AperFunction,Conductor*
%ADD35C,0.500000*%
G04 #@! TD*
G04 #@! TA.AperFunction,Conductor*
%ADD36C,0.550000*%
G04 #@! TD*
G04 #@! TA.AperFunction,Conductor*
%ADD37C,0.800000*%
G04 #@! TD*
G04 #@! TA.AperFunction,Conductor*
%ADD38C,0.750000*%
G04 #@! TD*
G04 #@! TA.AperFunction,Conductor*
%ADD39C,0.700000*%
G04 #@! TD*
G04 #@! TA.AperFunction,Conductor*
%ADD40C,0.250000*%
G04 #@! TD*
G04 APERTURE END LIST*
D10*
X115250000Y-120250000D03*
X108750000Y-120250000D03*
X115250000Y-115750000D03*
X108750000Y-115750000D03*
X204750000Y-80250000D03*
X198250000Y-80250000D03*
X204750000Y-75750000D03*
X198250000Y-75750000D03*
X198000000Y-45500000D03*
X204500000Y-45500000D03*
X198000000Y-50000000D03*
X204500000Y-50000000D03*
X112750000Y-144250000D03*
X106250000Y-144250000D03*
X112750000Y-139750000D03*
X106250000Y-139750000D03*
D11*
X115700000Y-93995000D03*
X107300000Y-92795000D03*
X107300000Y-69995000D03*
X115700000Y-68795000D03*
D12*
X109750000Y-97895000D03*
D13*
X113250000Y-97895000D03*
X109750000Y-64895000D03*
D14*
X191810000Y-39000000D03*
D15*
X184190000Y-39000000D03*
D14*
X115000000Y-152000000D03*
D15*
X122620000Y-152000000D03*
D16*
X113500000Y-103725000D03*
D17*
X110960000Y-103725000D03*
D14*
X157310000Y-143000000D03*
D15*
X149690000Y-143000000D03*
D14*
X141620000Y-143000000D03*
D15*
X134000000Y-143000000D03*
D14*
X152310000Y-138000000D03*
D15*
X144690000Y-138000000D03*
D14*
X140810000Y-138000000D03*
D15*
X133190000Y-138000000D03*
D14*
X154880000Y-137000000D03*
D15*
X162500000Y-137000000D03*
D13*
X192282500Y-96600000D03*
X195782500Y-129600000D03*
D12*
X192282500Y-129600000D03*
D11*
X198232500Y-100500000D03*
X189832500Y-101700000D03*
X189832500Y-124500000D03*
X198232500Y-125700000D03*
D15*
X164000000Y-44500000D03*
D14*
X164000000Y-36880000D03*
D15*
X172000000Y-44500000D03*
D14*
X172000000Y-36880000D03*
D15*
X151500000Y-44500000D03*
D14*
X151500000Y-36880000D03*
D15*
X144000000Y-44500000D03*
D14*
X144000000Y-36880000D03*
D15*
X147500000Y-44000000D03*
D14*
X147500000Y-36380000D03*
D15*
X159500000Y-44500000D03*
D14*
X159500000Y-36880000D03*
D15*
X155500000Y-44810000D03*
D14*
X155500000Y-37190000D03*
D18*
X131565000Y-49476250D03*
D19*
X131565000Y-54556250D03*
D18*
X165435000Y-64523750D03*
D19*
X165435000Y-59443750D03*
D15*
X173500000Y-56690000D03*
D14*
X173500000Y-64310000D03*
D20*
X130540000Y-150000000D03*
D21*
X128000000Y-150000000D03*
D15*
X169310000Y-54500000D03*
D14*
X161690000Y-54500000D03*
D17*
X178500000Y-50960000D03*
D22*
X178500000Y-53500000D03*
D17*
X138275000Y-46040000D03*
X138275000Y-43500000D03*
D22*
X138275000Y-40960000D03*
D16*
X169960000Y-143000000D03*
D17*
X172500000Y-143000000D03*
D22*
X124000000Y-50000000D03*
D17*
X124000000Y-47460000D03*
X124000000Y-44920000D03*
D23*
X184120000Y-127880000D03*
D24*
X181580000Y-127880000D03*
X179040000Y-127880000D03*
X176500000Y-127880000D03*
X176500000Y-135500000D03*
X179040000Y-135500000D03*
X181580000Y-135500000D03*
X184120000Y-135500000D03*
D10*
X187000000Y-59000000D03*
X193500000Y-59000000D03*
X187000000Y-63500000D03*
X193500000Y-63500000D03*
D14*
X168000000Y-37190000D03*
D15*
X168000000Y-44810000D03*
D14*
X133190000Y-132500000D03*
D15*
X140810000Y-132500000D03*
D16*
X128500000Y-39500000D03*
D17*
X131040000Y-39500000D03*
D22*
X152540000Y-50000000D03*
D17*
X150000000Y-50000000D03*
X144920000Y-50000000D03*
D25*
X138125000Y-63800000D03*
D18*
X140665000Y-63800000D03*
X143205000Y-63800000D03*
X145745000Y-63800000D03*
X148285000Y-63800000D03*
X150825000Y-63800000D03*
X153365000Y-63800000D03*
X155905000Y-63800000D03*
X155905000Y-56180000D03*
X153365000Y-56180000D03*
X150825000Y-56180000D03*
X148285000Y-56180000D03*
X145745000Y-56180000D03*
X143205000Y-56180000D03*
X140665000Y-56180000D03*
X138125000Y-56180000D03*
D16*
X178225000Y-143000000D03*
D17*
X180765000Y-143000000D03*
D26*
X210500000Y-156000000D03*
X210500000Y-39000000D03*
X99500000Y-38500000D03*
X99500000Y-155500000D03*
D27*
X165920000Y-128500000D03*
D28*
X171000000Y-128500000D03*
D16*
X188000000Y-143000000D03*
D17*
X185460000Y-143000000D03*
D21*
X155500000Y-126500000D03*
D20*
X158040000Y-126500000D03*
D27*
X134500000Y-70500000D03*
D28*
X139580000Y-70500000D03*
D14*
X163120000Y-132500000D03*
D15*
X155500000Y-132500000D03*
D14*
X152310000Y-132500000D03*
D15*
X144690000Y-132500000D03*
D10*
X115500000Y-128000000D03*
X122000000Y-128000000D03*
X115500000Y-132500000D03*
X122000000Y-132500000D03*
D21*
X135500000Y-126500000D03*
D20*
X138040000Y-126500000D03*
D21*
X145225000Y-126500000D03*
D20*
X147765000Y-126500000D03*
D29*
X174820000Y-78315000D03*
D30*
X130370000Y-117050000D03*
D31*
X130370000Y-114510000D03*
X130370000Y-111970000D03*
X130370000Y-109430000D03*
X130370000Y-106890000D03*
X130370000Y-104350000D03*
X130370000Y-101810000D03*
X130370000Y-99270000D03*
X130370000Y-96730000D03*
X130370000Y-94190000D03*
X130370000Y-91650000D03*
X130370000Y-89110000D03*
X130370000Y-86570000D03*
X130370000Y-84030000D03*
X130370000Y-81490000D03*
X130370000Y-78950000D03*
D32*
X177500000Y-114500000D03*
X174960000Y-114500000D03*
X172420000Y-114500000D03*
X169880000Y-114500000D03*
X167340000Y-114500000D03*
X164800000Y-114500000D03*
X162260000Y-114500000D03*
X159720000Y-114500000D03*
X157180000Y-114500000D03*
X154640000Y-114500000D03*
X177500000Y-73860000D03*
X174960000Y-73860000D03*
X172420000Y-73860000D03*
X169880000Y-73860000D03*
X167340000Y-73860000D03*
X164800000Y-73860000D03*
X162260000Y-73860000D03*
X159720000Y-73860000D03*
X157180000Y-73860000D03*
X154640000Y-73860000D03*
X177500000Y-117040000D03*
X174960000Y-117040000D03*
X172420000Y-117040000D03*
X169880000Y-117040000D03*
X167340000Y-117040000D03*
X164800000Y-117040000D03*
X162260000Y-117040000D03*
X159720000Y-117040000D03*
X157180000Y-117040000D03*
X154640000Y-117040000D03*
X177500000Y-71320000D03*
X174960000Y-71320000D03*
X172420000Y-71320000D03*
X169880000Y-71320000D03*
X167340000Y-71320000D03*
X164800000Y-71320000D03*
X162260000Y-71320000D03*
X159720000Y-71320000D03*
X157180000Y-71320000D03*
D33*
X154640000Y-71320000D03*
D34*
X112500000Y-129500000D03*
X117000000Y-114500000D03*
X200000000Y-107500000D03*
X196000000Y-116500000D03*
X194000000Y-94000000D03*
X189500000Y-92000000D03*
X184500000Y-90500000D03*
X174500000Y-82500000D03*
X177000000Y-111000000D03*
X158000000Y-86500000D03*
X154500000Y-81000000D03*
X184000000Y-139000000D03*
X188000000Y-139500000D03*
X140000000Y-76500000D03*
X135500000Y-76500000D03*
X131500000Y-76500000D03*
X126000000Y-113000000D03*
X186000000Y-71500000D03*
X186000000Y-52500000D03*
X120500000Y-49000000D03*
X137500000Y-113500000D03*
X137000000Y-117000000D03*
X177000000Y-56500000D03*
X176000000Y-59500000D03*
X169500000Y-60000000D03*
X165000000Y-55500000D03*
X134000000Y-140500000D03*
X163500000Y-110000000D03*
X162500000Y-112500000D03*
X160000000Y-111500000D03*
X154500000Y-96000000D03*
X146000000Y-95000000D03*
X145500000Y-89000000D03*
X142000000Y-86000000D03*
X137000000Y-89000000D03*
X160200000Y-106500000D03*
X156500000Y-96000000D03*
X152500000Y-91500000D03*
X148500000Y-87500000D03*
X126000000Y-82000000D03*
X110000000Y-81500000D03*
X142899000Y-72864407D03*
X151000000Y-72500000D03*
X159000000Y-98500000D03*
X167500000Y-106500000D03*
X178500000Y-112500000D03*
X182750000Y-91250000D03*
X183000000Y-52500000D03*
X180000000Y-74500000D03*
X180500000Y-77000000D03*
X179000000Y-114000000D03*
X175500000Y-119500000D03*
X171000000Y-121000000D03*
X181500000Y-89000000D03*
X179500000Y-94000000D03*
X175000000Y-104500000D03*
X174000000Y-109000000D03*
X177500000Y-147000000D03*
X203500000Y-101500000D03*
X188500000Y-74000000D03*
X142500000Y-97000000D03*
X158500000Y-58000000D03*
X176000000Y-85000000D03*
X159000000Y-89500000D03*
X149000000Y-99500000D03*
X140000000Y-101500000D03*
X158000000Y-65000000D03*
X142500000Y-68000000D03*
X168000000Y-67000000D03*
X170500000Y-65000000D03*
X170500000Y-59500000D03*
X147000000Y-53000000D03*
X157500000Y-54500000D03*
X138000000Y-51000000D03*
X149000000Y-59500000D03*
X155000000Y-86000000D03*
X162500000Y-97500000D03*
X138000000Y-98000000D03*
X141000000Y-98000000D03*
X134000000Y-115500000D03*
X147000000Y-100500000D03*
X156500000Y-53000000D03*
X146000000Y-54500000D03*
X139500000Y-50000000D03*
X164204902Y-69083000D03*
X118000000Y-102000000D03*
X118000000Y-109500000D03*
X116000000Y-123500000D03*
D35*
X105000000Y-119500000D02*
X108750000Y-115750000D01*
X105000000Y-123000000D02*
X105000000Y-119500000D01*
X105500000Y-123500000D02*
X105000000Y-123000000D01*
X116000000Y-123500000D02*
X105500000Y-123500000D01*
D36*
X115250000Y-120250000D02*
X117000000Y-118500000D01*
X117000000Y-118500000D02*
X117000000Y-114500000D01*
X108750000Y-120250000D02*
X115250000Y-120250000D01*
X108750000Y-115750000D02*
X115250000Y-115750000D01*
X196000000Y-111500000D02*
X200000000Y-107500000D01*
X196000000Y-116500000D02*
X196000000Y-111500000D01*
X122000000Y-159000000D02*
X115000000Y-152000000D01*
X211500000Y-123500000D02*
X176000000Y-159000000D01*
X211500000Y-100500000D02*
X211500000Y-123500000D01*
X205500000Y-94500000D02*
X211500000Y-100500000D01*
X176000000Y-159000000D02*
X122000000Y-159000000D01*
X194000000Y-94000000D02*
X194000000Y-94500000D01*
X194000000Y-94500000D02*
X205500000Y-94500000D01*
D35*
X177980902Y-72699000D02*
X173581000Y-72699000D01*
X178661000Y-73379098D02*
X177980902Y-72699000D01*
X178661000Y-88354957D02*
X178661000Y-73379098D01*
X178645043Y-88354957D02*
X178661000Y-88354957D01*
X177500000Y-90500000D02*
X177500000Y-89500000D01*
X185500000Y-98500000D02*
X177500000Y-90500000D01*
X192500000Y-98500000D02*
X185500000Y-98500000D01*
X194500000Y-127000000D02*
X194500000Y-100500000D01*
X195500000Y-127000000D02*
X194500000Y-127000000D01*
X197000000Y-128500000D02*
X195500000Y-127000000D01*
X197500000Y-128500000D02*
X197000000Y-128500000D01*
X198000000Y-129000000D02*
X197500000Y-128500000D01*
X198000000Y-129500000D02*
X198000000Y-129000000D01*
X192500000Y-135000000D02*
X198000000Y-129500000D01*
X191500000Y-135000000D02*
X192500000Y-135000000D01*
X187801000Y-138699000D02*
X191500000Y-135000000D01*
X187668214Y-138699000D02*
X187801000Y-138699000D01*
X187199000Y-139168214D02*
X187668214Y-138699000D01*
X187199000Y-139301000D02*
X187199000Y-139168214D01*
X182249000Y-144251000D02*
X187199000Y-139301000D01*
X178781182Y-144251000D02*
X182249000Y-144251000D01*
X194500000Y-100500000D02*
X192500000Y-98500000D01*
X174881000Y-148151182D02*
X178781182Y-144251000D01*
X174881000Y-152278537D02*
X174881000Y-148151182D01*
X173581000Y-72699000D02*
X172420000Y-73860000D01*
X164552000Y-156000000D02*
X167526000Y-153026000D01*
X139550463Y-156000000D02*
X164552000Y-156000000D01*
X167526000Y-153026000D02*
X174133537Y-153026000D01*
X132089000Y-133601000D02*
X132089000Y-148538537D01*
X132089000Y-148538537D02*
X139550463Y-156000000D01*
X133190000Y-132500000D02*
X132089000Y-133601000D01*
X177500000Y-89500000D02*
X178645043Y-88354957D01*
X174133537Y-153026000D02*
X174881000Y-152278537D01*
D36*
X186000000Y-92000000D02*
X189500000Y-92000000D01*
X184500000Y-90500000D02*
X186000000Y-92000000D01*
X169880000Y-77880000D02*
X174500000Y-82500000D01*
X169880000Y-73860000D02*
X169880000Y-77880000D01*
X177000000Y-112460000D02*
X174960000Y-114500000D01*
X177000000Y-111000000D02*
X177000000Y-112460000D01*
X158000000Y-84500000D02*
X158000000Y-86500000D01*
X154500000Y-81000000D02*
X158000000Y-84500000D01*
X115500000Y-132500000D02*
X112750000Y-135250000D01*
X112750000Y-135250000D02*
X112750000Y-139750000D01*
X106250000Y-139750000D02*
X112750000Y-139750000D01*
X106250000Y-144250000D02*
X112750000Y-144250000D01*
X112500000Y-149500000D02*
X115000000Y-152000000D01*
X112500000Y-144500000D02*
X112500000Y-149500000D01*
X112750000Y-144250000D02*
X112500000Y-144500000D01*
D35*
X183000000Y-140765000D02*
X180765000Y-143000000D01*
X183000000Y-140000000D02*
X183000000Y-140765000D01*
X184000000Y-139000000D02*
X183000000Y-140000000D01*
X193167490Y-139500000D02*
X188000000Y-139500000D01*
X201933500Y-101724712D02*
X201933500Y-130733990D01*
X196808788Y-96600000D02*
X201933500Y-101724712D01*
X201933500Y-130733990D02*
X193167490Y-139500000D01*
X192282500Y-96600000D02*
X196808788Y-96600000D01*
X192282500Y-89717500D02*
X192282500Y-96600000D01*
X198250000Y-83750000D02*
X192282500Y-89717500D01*
X198250000Y-80250000D02*
X198250000Y-83750000D01*
D36*
X135500000Y-76500000D02*
X140000000Y-76500000D01*
X124000000Y-75000000D02*
X130000000Y-75000000D01*
X130000000Y-75000000D02*
X131500000Y-76500000D01*
X122500000Y-76500000D02*
X124000000Y-75000000D01*
X122500000Y-98668141D02*
X122500000Y-76500000D01*
X118342141Y-102826000D02*
X122500000Y-98668141D01*
X116943564Y-102826000D02*
X118342141Y-102826000D01*
X113250000Y-99132436D02*
X116943564Y-102826000D01*
X113250000Y-97895000D02*
X113250000Y-99132436D01*
X113250000Y-103475000D02*
X113500000Y-103725000D01*
X113250000Y-97895000D02*
X113250000Y-103475000D01*
X127550000Y-117050000D02*
X130370000Y-117050000D01*
X126000000Y-115500000D02*
X127550000Y-117050000D01*
X126000000Y-113000000D02*
X126000000Y-115500000D01*
X184500000Y-54000000D02*
X186000000Y-52500000D01*
X184500000Y-65500000D02*
X184500000Y-54000000D01*
X186500000Y-67500000D02*
X184500000Y-65500000D01*
X186000000Y-71500000D02*
X186500000Y-71000000D01*
X186500000Y-71000000D02*
X186500000Y-67500000D01*
X198000000Y-59000000D02*
X193500000Y-63500000D01*
X198000000Y-50000000D02*
X198000000Y-59000000D01*
X121500000Y-50000000D02*
X124000000Y-50000000D01*
X120500000Y-49000000D02*
X121500000Y-50000000D01*
X131565000Y-57434999D02*
X131565000Y-54556250D01*
X124104999Y-64895000D02*
X131565000Y-57434999D01*
X109750000Y-64895000D02*
X124104999Y-64895000D01*
X137500000Y-116500000D02*
X137500000Y-113500000D01*
X137000000Y-117000000D02*
X137500000Y-116500000D01*
X176000000Y-57500000D02*
X177000000Y-56500000D01*
X176000000Y-59500000D02*
X176000000Y-57500000D01*
D35*
X165000000Y-55500000D02*
X169500000Y-60000000D01*
D36*
X122000000Y-132500000D02*
X115500000Y-132500000D01*
X140810000Y-129270000D02*
X138040000Y-126500000D01*
X140810000Y-132500000D02*
X140810000Y-129270000D01*
X134000000Y-140500000D02*
X134000000Y-138810000D01*
D35*
X163500000Y-111500000D02*
X163500000Y-110000000D01*
X162500000Y-112500000D02*
X163500000Y-111500000D01*
X154500000Y-106000000D02*
X160000000Y-111500000D01*
X154500000Y-96000000D02*
X154500000Y-106000000D01*
X145500000Y-94500000D02*
X146000000Y-95000000D01*
X145500000Y-89000000D02*
X145500000Y-94500000D01*
X139000000Y-89000000D02*
X142000000Y-86000000D01*
X137000000Y-89000000D02*
X139000000Y-89000000D01*
X156500000Y-102651000D02*
X160349000Y-106500000D01*
X160349000Y-106500000D02*
X160200000Y-106500000D01*
X156500000Y-96000000D02*
X156500000Y-102651000D01*
X148500000Y-87500000D02*
X152500000Y-91500000D01*
X131660000Y-95440000D02*
X131660000Y-92940000D01*
X130370000Y-96730000D02*
X131660000Y-95440000D01*
X131660000Y-92940000D02*
X130370000Y-91650000D01*
D36*
X129055000Y-87885000D02*
X130370000Y-86570000D01*
X129055000Y-97955000D02*
X129055000Y-87885000D01*
X130370000Y-99270000D02*
X129055000Y-97955000D01*
D35*
X129860000Y-82000000D02*
X130370000Y-81490000D01*
X126000000Y-82000000D02*
X129860000Y-82000000D01*
D36*
X143000000Y-76000000D02*
X142899000Y-76000000D01*
X142899000Y-75899000D02*
X143000000Y-76000000D01*
X142899000Y-72864407D02*
X142899000Y-75899000D01*
X152139000Y-71361000D02*
X151000000Y-72500000D01*
X152139000Y-63292174D02*
X152139000Y-71361000D01*
X157157859Y-58273315D02*
X152139000Y-63292174D01*
X157157859Y-55326000D02*
X157157859Y-58273315D01*
X156674000Y-54157859D02*
X156674000Y-54842141D01*
X156674000Y-54842141D02*
X157157859Y-55326000D01*
X157157859Y-53674000D02*
X156674000Y-54157859D01*
X158165364Y-53674000D02*
X157157859Y-53674000D01*
X161775000Y-57283636D02*
X158165364Y-53674000D01*
X161775000Y-65484957D02*
X161775000Y-57283636D01*
X167340000Y-71049957D02*
X161775000Y-65484957D01*
X167340000Y-71320000D02*
X167340000Y-71049957D01*
D35*
X159801000Y-84354439D02*
X154640000Y-79193439D01*
X159801000Y-97699000D02*
X159801000Y-84354439D01*
X154640000Y-79193439D02*
X154640000Y-73860000D01*
X159000000Y-98500000D02*
X159801000Y-97699000D01*
X171259000Y-110259000D02*
X167500000Y-106500000D01*
X180241000Y-126502902D02*
X171259000Y-117520902D01*
X179537470Y-129481000D02*
X180241000Y-128777470D01*
X171259000Y-117520902D02*
X171259000Y-110259000D01*
X178101000Y-129481000D02*
X179537470Y-129481000D01*
X180241000Y-128777470D02*
X180241000Y-126502902D01*
X176500000Y-127880000D02*
X178101000Y-129481000D01*
D36*
X178668141Y-112500000D02*
X178500000Y-112500000D01*
X185346000Y-119177859D02*
X178668141Y-112500000D01*
X185346000Y-134274000D02*
X185346000Y-119177859D01*
X184120000Y-135500000D02*
X185346000Y-134274000D01*
X183000000Y-91000000D02*
X182750000Y-91250000D01*
X183000000Y-52500000D02*
X183000000Y-91000000D01*
D35*
X180500000Y-75000000D02*
X180000000Y-74500000D01*
X180500000Y-77000000D02*
X180500000Y-75000000D01*
X177980902Y-115661000D02*
X179000000Y-114641902D01*
X177237098Y-115661000D02*
X177980902Y-115661000D01*
X176339000Y-116559098D02*
X177237098Y-115661000D01*
X176339000Y-118661000D02*
X176339000Y-116559098D01*
X179000000Y-114641902D02*
X179000000Y-114000000D01*
X175500000Y-119500000D02*
X176339000Y-118661000D01*
X171000000Y-126496059D02*
X171000000Y-121000000D01*
X164996059Y-132500000D02*
X171000000Y-126496059D01*
X163120000Y-132500000D02*
X164996059Y-132500000D01*
X173809182Y-44500000D02*
X172000000Y-44500000D01*
X181500000Y-52190818D02*
X173809182Y-44500000D01*
X181500000Y-89000000D02*
X181500000Y-52190818D01*
X179500000Y-100000000D02*
X179500000Y-94000000D01*
X175000000Y-104500000D02*
X179500000Y-100000000D01*
X173799000Y-109201000D02*
X174000000Y-109000000D01*
X173799000Y-115879000D02*
X173799000Y-109201000D01*
X174960000Y-117040000D02*
X173799000Y-115879000D01*
X173500000Y-58500000D02*
X178500000Y-53500000D01*
X173500000Y-64310000D02*
X173500000Y-58500000D01*
X187000000Y-147000000D02*
X177500000Y-147000000D01*
X210000000Y-124000000D02*
X187000000Y-147000000D01*
X203500000Y-101500000D02*
X210000000Y-108000000D01*
X210000000Y-108000000D02*
X210000000Y-124000000D01*
X142500000Y-41815000D02*
X138275000Y-46040000D01*
X143000000Y-34000000D02*
X142500000Y-34500000D01*
X174000000Y-34000000D02*
X143000000Y-34000000D01*
X188500000Y-48500000D02*
X174000000Y-34000000D01*
X188500000Y-74000000D02*
X188500000Y-48500000D01*
X142500000Y-34500000D02*
X142500000Y-41815000D01*
X142721000Y-144101000D02*
X141620000Y-143000000D01*
X157766050Y-144101000D02*
X142721000Y-144101000D01*
X163601000Y-138266050D02*
X157766050Y-144101000D01*
X163601000Y-136543950D02*
X163601000Y-138266050D01*
X161651000Y-134593950D02*
X163601000Y-136543950D01*
X161651000Y-129849000D02*
X161651000Y-134593950D01*
X163639000Y-127861000D02*
X161651000Y-129849000D01*
X163639000Y-115879000D02*
X163639000Y-127861000D01*
X162260000Y-114500000D02*
X163639000Y-115879000D01*
D37*
X135180000Y-97000000D02*
X130370000Y-101810000D01*
X142500000Y-97000000D02*
X135180000Y-97000000D01*
D38*
X158500000Y-63080248D02*
X158500000Y-58000000D01*
X153354000Y-68226248D02*
X158500000Y-63080248D01*
X153354000Y-72574000D02*
X153354000Y-68226248D01*
X154640000Y-73860000D02*
X153354000Y-72574000D01*
X177251000Y-83749000D02*
X177251000Y-76151000D01*
X177251000Y-76151000D02*
X174960000Y-73860000D01*
X176000000Y-85000000D02*
X177251000Y-83749000D01*
X149000000Y-99500000D02*
X159000000Y-89500000D01*
X152310000Y-113810000D02*
X140000000Y-101500000D01*
X152310000Y-132500000D02*
X152310000Y-113810000D01*
X147765000Y-129425000D02*
X147765000Y-126500000D01*
X144690000Y-132500000D02*
X147765000Y-129425000D01*
X154640000Y-68360000D02*
X154640000Y-71320000D01*
X158000000Y-65000000D02*
X154640000Y-68360000D01*
X141500000Y-69000000D02*
X141500000Y-80520000D01*
X141500000Y-80520000D02*
X130370000Y-91650000D01*
X142500000Y-68000000D02*
X141500000Y-69000000D01*
X169880000Y-68880000D02*
X168000000Y-67000000D01*
X169880000Y-71320000D02*
X169880000Y-68880000D01*
D39*
X171000000Y-67360000D02*
X174960000Y-71320000D01*
X171000000Y-65500000D02*
X171000000Y-67360000D01*
X170500000Y-65000000D02*
X171000000Y-65500000D01*
X164500000Y-53500000D02*
X170500000Y-59500000D01*
X164500000Y-51000000D02*
X164500000Y-53500000D01*
X164000000Y-50500000D02*
X164500000Y-51000000D01*
X164000000Y-44500000D02*
X164000000Y-50500000D01*
D36*
X147000000Y-52080000D02*
X144920000Y-50000000D01*
X147000000Y-53000000D02*
X147000000Y-52080000D01*
X158000000Y-54500000D02*
X157500000Y-54500000D01*
X161074000Y-57574000D02*
X158000000Y-54500000D01*
X161074000Y-72674000D02*
X161074000Y-57574000D01*
X162260000Y-73860000D02*
X161074000Y-72674000D01*
X136000000Y-45775000D02*
X138275000Y-43500000D01*
X138000000Y-51000000D02*
X136000000Y-49000000D01*
X136000000Y-49000000D02*
X136000000Y-45775000D01*
X149511000Y-60011000D02*
X149000000Y-59500000D01*
X149511000Y-80511000D02*
X149511000Y-60011000D01*
X155000000Y-86000000D02*
X149511000Y-80511000D01*
X164800000Y-99800000D02*
X162500000Y-97500000D01*
X164800000Y-114500000D02*
X164800000Y-99800000D01*
X141000000Y-98000000D02*
X138000000Y-98000000D01*
X133000000Y-115500000D02*
X134000000Y-115500000D01*
X133000000Y-106980000D02*
X133000000Y-115500000D01*
X130370000Y-104350000D02*
X133000000Y-106980000D01*
D35*
X146946000Y-55682529D02*
X146946000Y-100446000D01*
X147796743Y-54831786D02*
X146946000Y-55682529D01*
X154668214Y-54831786D02*
X147796743Y-54831786D01*
X156500000Y-53000000D02*
X154668214Y-54831786D01*
X165481000Y-43399000D02*
X172000000Y-36880000D01*
X160601000Y-43399000D02*
X165481000Y-43399000D01*
X159500000Y-44500000D02*
X160601000Y-43399000D01*
X147500000Y-37000000D02*
X151500000Y-41000000D01*
X147500000Y-36380000D02*
X147500000Y-37000000D01*
X151500000Y-41000000D02*
X151500000Y-44500000D01*
X163500000Y-55601000D02*
X172399000Y-64500000D01*
X172399000Y-64500000D02*
X172399000Y-66219000D01*
X149411000Y-45911000D02*
X151543950Y-45911000D01*
X172399000Y-66219000D02*
X177500000Y-71320000D01*
X147500000Y-44000000D02*
X149411000Y-45911000D01*
X151543950Y-45911000D02*
X161233950Y-55601000D01*
X161233950Y-55601000D02*
X163500000Y-55601000D01*
X159720000Y-130590000D02*
X152310000Y-138000000D01*
X159720000Y-117040000D02*
X159720000Y-130590000D01*
X143669000Y-44831000D02*
X144000000Y-44500000D01*
X144544000Y-51393182D02*
X143669000Y-50518182D01*
X144544000Y-66837471D02*
X144544000Y-51393182D01*
X143699000Y-67682471D02*
X144544000Y-66837471D01*
X143669000Y-50518182D02*
X143669000Y-44831000D01*
X143699000Y-103559000D02*
X143699000Y-67682471D01*
X154640000Y-114500000D02*
X143699000Y-103559000D01*
X146500000Y-54000000D02*
X146000000Y-54500000D01*
X148500000Y-53500000D02*
X148000000Y-54000000D01*
X148500000Y-51500000D02*
X148500000Y-53500000D01*
X148000000Y-54000000D02*
X146500000Y-54000000D01*
X150000000Y-50000000D02*
X148500000Y-51500000D01*
D40*
X139580000Y-50080000D02*
X139500000Y-50000000D01*
X139580000Y-70500000D02*
X139580000Y-50080000D01*
D38*
X188000000Y-143000000D02*
X185460000Y-143000000D01*
X169960000Y-143000000D02*
X172500000Y-143000000D01*
D36*
X118000000Y-76305000D02*
X138125000Y-56180000D01*
X118000000Y-102000000D02*
X118000000Y-76305000D01*
X128000000Y-119500000D02*
X118000000Y-109500000D01*
X128000000Y-150000000D02*
X128000000Y-119500000D01*
D35*
X168719000Y-117559000D02*
X179040000Y-127880000D01*
X168719000Y-114019098D02*
X168719000Y-117559000D01*
X165961000Y-111261098D02*
X168719000Y-114019098D01*
X164204902Y-69083000D02*
X165961000Y-70839098D01*
X165961000Y-70839098D02*
X165961000Y-111261098D01*
D40*
X138820000Y-70500000D02*
X139580000Y-70500000D01*
X130370000Y-78950000D02*
X138820000Y-70500000D01*
D36*
X115500000Y-132500000D02*
X112500000Y-129500000D01*
X122000000Y-128000000D02*
X115500000Y-128000000D01*
X135500000Y-135690000D02*
X135500000Y-126500000D01*
X133190000Y-138000000D02*
X135500000Y-135690000D01*
X134000000Y-138810000D02*
X133190000Y-138000000D01*
X134000000Y-143000000D02*
X134000000Y-140500000D01*
D35*
X193500000Y-75500000D02*
X198250000Y-80250000D01*
X193500000Y-63500000D02*
X193500000Y-75500000D01*
X161000000Y-76761902D02*
X163500000Y-74261902D01*
X163500000Y-74261902D02*
X163500000Y-72620000D01*
X161000000Y-139310000D02*
X161000000Y-76761902D01*
X157310000Y-143000000D02*
X161000000Y-139310000D01*
X163500000Y-72620000D02*
X164800000Y-71320000D01*
X176500000Y-132960000D02*
X179040000Y-135500000D01*
X176500000Y-127880000D02*
X176500000Y-132960000D01*
X184120000Y-127880000D02*
X184120000Y-132960000D01*
X184120000Y-132960000D02*
X181580000Y-135500000D01*
D40*
X179580000Y-137500000D02*
X181580000Y-135500000D01*
X174000000Y-137500000D02*
X179580000Y-137500000D01*
X173000000Y-136500000D02*
X174000000Y-137500000D01*
X171000000Y-128500000D02*
X173000000Y-130500000D01*
X173000000Y-130500000D02*
X173000000Y-136500000D01*
D35*
X158040000Y-129960000D02*
X155500000Y-132500000D01*
X158040000Y-126500000D02*
X158040000Y-129960000D01*
D40*
X130370000Y-120870000D02*
X130370000Y-117050000D01*
X135500000Y-126000000D02*
X130370000Y-120870000D01*
X135500000Y-126500000D02*
X135500000Y-126000000D01*
X154640000Y-117040000D02*
X154640000Y-122140000D01*
X154640000Y-122140000D02*
X155500000Y-123000000D01*
X155500000Y-123000000D02*
X155500000Y-126500000D01*
D35*
X110000000Y-81500000D02*
X109912500Y-81412500D01*
X105000000Y-81412500D02*
X105000000Y-102500000D01*
X105000000Y-102500000D02*
X117000000Y-114500000D01*
X109912500Y-81412500D02*
X105000000Y-81412500D01*
M02*
