G04 #@! TF.GenerationSoftware,KiCad,Pcbnew,9.0.1*
G04 #@! TF.CreationDate,2025-04-14T15:22:14-05:00*
G04 #@! TF.ProjectId,cjm6842,636a6d36-3834-4322-9e6b-696361645f70,v1.0.1*
G04 #@! TF.SameCoordinates,Original*
G04 #@! TF.FileFunction,Copper,L1,Top*
G04 #@! TF.FilePolarity,Positive*
%FSLAX46Y46*%
G04 Gerber Fmt 4.6, Leading zero omitted, Abs format (unit mm)*
G04 Created by KiCad (PCBNEW 9.0.1) date 2025-04-14 15:22:14*
%MOMM*%
%LPD*%
G01*
G04 APERTURE LIST*
G04 #@! TA.AperFunction,ComponentPad*
%ADD10C,2.000000*%
G04 #@! TD*
G04 #@! TA.AperFunction,WasherPad*
%ADD11C,2.700000*%
G04 #@! TD*
G04 #@! TA.AperFunction,ComponentPad*
%ADD12R,1.750000X1.750000*%
G04 #@! TD*
G04 #@! TA.AperFunction,ComponentPad*
%ADD13C,1.750000*%
G04 #@! TD*
G04 #@! TA.AperFunction,ComponentPad*
%ADD14C,1.400000*%
G04 #@! TD*
G04 #@! TA.AperFunction,ComponentPad*
%ADD15O,1.400000X1.400000*%
G04 #@! TD*
G04 #@! TA.AperFunction,ComponentPad*
%ADD16C,1.700000*%
G04 #@! TD*
G04 #@! TA.AperFunction,ComponentPad*
%ADD17O,1.700000X1.700000*%
G04 #@! TD*
G04 #@! TA.AperFunction,ComponentPad*
%ADD18O,1.600000X1.600000*%
G04 #@! TD*
G04 #@! TA.AperFunction,ComponentPad*
%ADD19C,1.600000*%
G04 #@! TD*
G04 #@! TA.AperFunction,ComponentPad*
%ADD20C,1.800000*%
G04 #@! TD*
G04 #@! TA.AperFunction,ComponentPad*
%ADD21R,1.800000X1.800000*%
G04 #@! TD*
G04 #@! TA.AperFunction,ComponentPad*
%ADD22R,1.700000X1.700000*%
G04 #@! TD*
G04 #@! TA.AperFunction,ComponentPad*
%ADD23R,1.600000X2.400000*%
G04 #@! TD*
G04 #@! TA.AperFunction,ComponentPad*
%ADD24O,1.600000X2.400000*%
G04 #@! TD*
G04 #@! TA.AperFunction,ComponentPad*
%ADD25R,1.600000X1.600000*%
G04 #@! TD*
G04 #@! TA.AperFunction,ComponentPad*
%ADD26C,4.318000*%
G04 #@! TD*
G04 #@! TA.AperFunction,ComponentPad*
%ADD27R,2.032000X2.032000*%
G04 #@! TD*
G04 #@! TA.AperFunction,ComponentPad*
%ADD28C,2.032000*%
G04 #@! TD*
G04 #@! TA.AperFunction,WasherPad*
%ADD29C,3.810000*%
G04 #@! TD*
G04 #@! TA.AperFunction,ComponentPad*
%ADD30R,1.778000X1.778000*%
G04 #@! TD*
G04 #@! TA.AperFunction,ComponentPad*
%ADD31C,1.778000*%
G04 #@! TD*
G04 #@! TA.AperFunction,ComponentPad*
%ADD32C,1.520000*%
G04 #@! TD*
G04 #@! TA.AperFunction,ComponentPad*
%ADD33R,1.520000X1.520000*%
G04 #@! TD*
G04 #@! TA.AperFunction,ViaPad*
%ADD34C,0.800000*%
G04 #@! TD*
G04 #@! TA.AperFunction,Conductor*
%ADD35C,0.550000*%
G04 #@! TD*
G04 #@! TA.AperFunction,Conductor*
%ADD36C,0.500000*%
G04 #@! TD*
G04 #@! TA.AperFunction,Conductor*
%ADD37C,0.750000*%
G04 #@! TD*
G04 #@! TA.AperFunction,Conductor*
%ADD38C,0.800000*%
G04 #@! TD*
G04 #@! TA.AperFunction,Conductor*
%ADD39C,0.700000*%
G04 #@! TD*
G04 #@! TA.AperFunction,Conductor*
%ADD40C,0.250000*%
G04 #@! TD*
G04 APERTURE END LIST*
D10*
X115250000Y-120250000D03*
X108750000Y-120250000D03*
X115250000Y-115750000D03*
X108750000Y-115750000D03*
X204750000Y-80250000D03*
X198250000Y-80250000D03*
X204750000Y-75750000D03*
X198250000Y-75750000D03*
X198000000Y-45500000D03*
X204500000Y-45500000D03*
X198000000Y-50000000D03*
X204500000Y-50000000D03*
X112750000Y-144250000D03*
X106250000Y-144250000D03*
X112750000Y-139750000D03*
X106250000Y-139750000D03*
D11*
X115700000Y-93995000D03*
X107300000Y-92795000D03*
X107300000Y-69995000D03*
X115700000Y-68795000D03*
D12*
X109750000Y-97895000D03*
D13*
X113250000Y-97895000D03*
X109750000Y-64895000D03*
D14*
X191810000Y-39000000D03*
D15*
X184190000Y-39000000D03*
D14*
X115000000Y-152000000D03*
D15*
X122620000Y-152000000D03*
D16*
X113500000Y-103725000D03*
D17*
X110960000Y-103725000D03*
D14*
X157310000Y-143000000D03*
D15*
X149690000Y-143000000D03*
D14*
X141620000Y-143000000D03*
D15*
X134000000Y-143000000D03*
D14*
X152310000Y-138000000D03*
D15*
X144690000Y-138000000D03*
D14*
X140810000Y-138000000D03*
D15*
X133190000Y-138000000D03*
D14*
X154880000Y-137000000D03*
D15*
X162500000Y-137000000D03*
D13*
X192282500Y-96600000D03*
X195782500Y-129600000D03*
D12*
X192282500Y-129600000D03*
D11*
X198232500Y-100500000D03*
X189832500Y-101700000D03*
X189832500Y-124500000D03*
X198232500Y-125700000D03*
D15*
X164000000Y-44500000D03*
D14*
X164000000Y-36880000D03*
D15*
X172000000Y-44500000D03*
D14*
X172000000Y-36880000D03*
D15*
X151500000Y-44500000D03*
D14*
X151500000Y-36880000D03*
D15*
X144000000Y-44500000D03*
D14*
X144000000Y-36880000D03*
D15*
X147500000Y-44000000D03*
D14*
X147500000Y-36380000D03*
D15*
X159500000Y-44500000D03*
D14*
X159500000Y-36880000D03*
D15*
X155500000Y-44810000D03*
D14*
X155500000Y-37190000D03*
D18*
X131565000Y-49476250D03*
D19*
X131565000Y-54556250D03*
D18*
X165435000Y-64523750D03*
D19*
X165435000Y-59443750D03*
D15*
X173500000Y-56690000D03*
D14*
X173500000Y-64310000D03*
D20*
X130540000Y-150000000D03*
D21*
X128000000Y-150000000D03*
D15*
X169310000Y-54500000D03*
D14*
X161690000Y-54500000D03*
D17*
X178500000Y-50960000D03*
D22*
X178500000Y-53500000D03*
D17*
X138275000Y-46040000D03*
X138275000Y-43500000D03*
D22*
X138275000Y-40960000D03*
D16*
X169960000Y-143000000D03*
D17*
X172500000Y-143000000D03*
D22*
X124000000Y-50000000D03*
D17*
X124000000Y-47460000D03*
X124000000Y-44920000D03*
D23*
X184120000Y-127880000D03*
D24*
X181580000Y-127880000D03*
X179040000Y-127880000D03*
X176500000Y-127880000D03*
X176500000Y-135500000D03*
X179040000Y-135500000D03*
X181580000Y-135500000D03*
X184120000Y-135500000D03*
D10*
X187000000Y-59000000D03*
X193500000Y-59000000D03*
X187000000Y-63500000D03*
X193500000Y-63500000D03*
D14*
X168000000Y-37190000D03*
D15*
X168000000Y-44810000D03*
D14*
X133190000Y-132500000D03*
D15*
X140810000Y-132500000D03*
D16*
X128500000Y-39500000D03*
D17*
X131040000Y-39500000D03*
D22*
X152540000Y-50000000D03*
D17*
X150000000Y-50000000D03*
X144920000Y-50000000D03*
D25*
X138125000Y-63800000D03*
D18*
X140665000Y-63800000D03*
X143205000Y-63800000D03*
X145745000Y-63800000D03*
X148285000Y-63800000D03*
X150825000Y-63800000D03*
X153365000Y-63800000D03*
X155905000Y-63800000D03*
X155905000Y-56180000D03*
X153365000Y-56180000D03*
X150825000Y-56180000D03*
X148285000Y-56180000D03*
X145745000Y-56180000D03*
X143205000Y-56180000D03*
X140665000Y-56180000D03*
X138125000Y-56180000D03*
D16*
X178225000Y-143000000D03*
D17*
X180765000Y-143000000D03*
D26*
X210500000Y-156000000D03*
X210500000Y-39000000D03*
X99500000Y-38500000D03*
X99500000Y-155500000D03*
D27*
X165920000Y-128500000D03*
D28*
X171000000Y-128500000D03*
D16*
X188000000Y-143000000D03*
D17*
X185460000Y-143000000D03*
D21*
X155500000Y-126500000D03*
D20*
X158040000Y-126500000D03*
D27*
X134500000Y-70500000D03*
D28*
X139580000Y-70500000D03*
D14*
X163120000Y-132500000D03*
D15*
X155500000Y-132500000D03*
D14*
X152310000Y-132500000D03*
D15*
X144690000Y-132500000D03*
D10*
X115500000Y-128000000D03*
X122000000Y-128000000D03*
X115500000Y-132500000D03*
X122000000Y-132500000D03*
D21*
X135500000Y-126500000D03*
D20*
X138040000Y-126500000D03*
D21*
X145225000Y-126500000D03*
D20*
X147765000Y-126500000D03*
D29*
X174820000Y-78315000D03*
D30*
X130370000Y-117050000D03*
D31*
X130370000Y-114510000D03*
X130370000Y-111970000D03*
X130370000Y-109430000D03*
X130370000Y-106890000D03*
X130370000Y-104350000D03*
X130370000Y-101810000D03*
X130370000Y-99270000D03*
X130370000Y-96730000D03*
X130370000Y-94190000D03*
X130370000Y-91650000D03*
X130370000Y-89110000D03*
X130370000Y-86570000D03*
X130370000Y-84030000D03*
X130370000Y-81490000D03*
X130370000Y-78950000D03*
D32*
X177500000Y-114500000D03*
X174960000Y-114500000D03*
X172420000Y-114500000D03*
X169880000Y-114500000D03*
X167340000Y-114500000D03*
X164800000Y-114500000D03*
X162260000Y-114500000D03*
X159720000Y-114500000D03*
X157180000Y-114500000D03*
X154640000Y-114500000D03*
X177500000Y-73860000D03*
X174960000Y-73860000D03*
X172420000Y-73860000D03*
X169880000Y-73860000D03*
X167340000Y-73860000D03*
X164800000Y-73860000D03*
X162260000Y-73860000D03*
X159720000Y-73860000D03*
X157180000Y-73860000D03*
X154640000Y-73860000D03*
X177500000Y-117040000D03*
X174960000Y-117040000D03*
X172420000Y-117040000D03*
X169880000Y-117040000D03*
X167340000Y-117040000D03*
X164800000Y-117040000D03*
X162260000Y-117040000D03*
X159720000Y-117040000D03*
X157180000Y-117040000D03*
X154640000Y-117040000D03*
X177500000Y-71320000D03*
X174960000Y-71320000D03*
X172420000Y-71320000D03*
X169880000Y-71320000D03*
X167340000Y-71320000D03*
X164800000Y-71320000D03*
X162260000Y-71320000D03*
X159720000Y-71320000D03*
X157180000Y-71320000D03*
D33*
X154640000Y-71320000D03*
D34*
X112500000Y-129500000D03*
X117000000Y-114500000D03*
X200000000Y-107500000D03*
X196000000Y-116500000D03*
X194000000Y-94000000D03*
X189500000Y-92000000D03*
X184500000Y-90500000D03*
X174500000Y-82500000D03*
X177000000Y-111000000D03*
X158000000Y-86500000D03*
X154500000Y-81000000D03*
X184000000Y-139000000D03*
X188000000Y-139500000D03*
X140000000Y-76500000D03*
X135500000Y-76500000D03*
X131500000Y-76500000D03*
X126000000Y-113000000D03*
X186000000Y-71500000D03*
X186000000Y-52500000D03*
X120500000Y-49000000D03*
X137500000Y-113500000D03*
X137000000Y-117000000D03*
X177000000Y-56500000D03*
X176000000Y-59500000D03*
X169500000Y-60000000D03*
X165000000Y-55500000D03*
X134000000Y-140500000D03*
X163500000Y-110000000D03*
X162500000Y-112500000D03*
X160000000Y-111500000D03*
X154500000Y-96000000D03*
X146000000Y-95000000D03*
X145500000Y-89000000D03*
X142000000Y-86000000D03*
X137000000Y-89000000D03*
X160200000Y-106500000D03*
X156500000Y-96000000D03*
X152500000Y-91500000D03*
X148500000Y-87500000D03*
X126000000Y-82000000D03*
X110000000Y-81500000D03*
X142899000Y-72864407D03*
X151000000Y-72500000D03*
X159000000Y-98500000D03*
X167500000Y-106500000D03*
X178500000Y-112500000D03*
X182750000Y-91250000D03*
X183000000Y-52500000D03*
X180000000Y-74500000D03*
X180500000Y-77000000D03*
X179000000Y-114000000D03*
X175500000Y-119500000D03*
X171000000Y-121000000D03*
X181500000Y-89000000D03*
X179500000Y-94000000D03*
X175000000Y-104500000D03*
X174000000Y-109000000D03*
X177500000Y-147000000D03*
X203500000Y-101500000D03*
X188500000Y-74000000D03*
X142500000Y-97000000D03*
X158500000Y-58000000D03*
X176000000Y-85000000D03*
X159000000Y-89500000D03*
X149000000Y-99500000D03*
X140000000Y-101500000D03*
X158000000Y-65000000D03*
X142500000Y-68000000D03*
X168000000Y-67000000D03*
X170500000Y-65000000D03*
X170500000Y-59500000D03*
X147000000Y-53000000D03*
X157500000Y-54500000D03*
X138000000Y-51000000D03*
X149000000Y-59500000D03*
X155000000Y-86000000D03*
X162500000Y-97500000D03*
X138000000Y-98000000D03*
X141000000Y-98000000D03*
X134000000Y-115500000D03*
X147000000Y-100500000D03*
X156500000Y-53000000D03*
X146000000Y-54500000D03*
X139500000Y-50000000D03*
X164204902Y-69083000D03*
X118000000Y-102000000D03*
X118000000Y-109500000D03*
X116000000Y-123500000D03*
D35*
X112500000Y-123000000D02*
X112500000Y-129500000D01*
X115250000Y-120250000D02*
X112500000Y-123000000D01*
X203500000Y-104000000D02*
X203500000Y-101500000D01*
X200000000Y-107500000D02*
X203500000Y-104000000D01*
X195782500Y-116717500D02*
X196000000Y-116500000D01*
X195782500Y-129600000D02*
X195782500Y-116717500D01*
D36*
X186100000Y-129600000D02*
X192282500Y-129600000D01*
X184120000Y-127880000D02*
X184120000Y-127620000D01*
X184120000Y-127620000D02*
X186100000Y-129600000D01*
D35*
X192000000Y-92000000D02*
X194000000Y-94000000D01*
X189500000Y-92000000D02*
X192000000Y-92000000D01*
X183824000Y-89824000D02*
X184500000Y-90500000D01*
X178500000Y-82500000D02*
X183824000Y-87824000D01*
X174500000Y-82500000D02*
X178500000Y-82500000D01*
X183824000Y-87824000D02*
X183824000Y-89824000D01*
D36*
X185849000Y-82349000D02*
X180500000Y-77000000D01*
X186000000Y-84920654D02*
X185849000Y-84769653D01*
X185849000Y-84769653D02*
X185849000Y-82349000D01*
X186000000Y-107000000D02*
X186000000Y-84920654D01*
X179000000Y-114000000D02*
X186000000Y-107000000D01*
D35*
X163168141Y-91500000D02*
X177000000Y-105331859D01*
X177000000Y-105331859D02*
X177000000Y-111000000D01*
X159500000Y-91500000D02*
X163168141Y-91500000D01*
X158000000Y-90000000D02*
X159500000Y-91500000D01*
X158000000Y-86500000D02*
X158000000Y-90000000D01*
X154000000Y-80500000D02*
X154500000Y-81000000D01*
X134000000Y-80500000D02*
X154000000Y-80500000D01*
X130370000Y-84030000D02*
X130470000Y-84030000D01*
X130470000Y-84030000D02*
X134000000Y-80500000D01*
X131620000Y-143000000D02*
X134000000Y-143000000D01*
X122620000Y-152000000D02*
X131620000Y-143000000D01*
D36*
X187500000Y-139000000D02*
X184000000Y-139000000D01*
X188000000Y-139500000D02*
X187500000Y-139000000D01*
D35*
X157080000Y-76500000D02*
X159720000Y-73860000D01*
X140000000Y-76500000D02*
X157080000Y-76500000D01*
X131500000Y-76500000D02*
X135500000Y-76500000D01*
X126000000Y-108831859D02*
X126000000Y-113000000D01*
X118342141Y-101174000D02*
X126000000Y-108831859D01*
X113029000Y-101174000D02*
X118342141Y-101174000D01*
X109750000Y-97895000D02*
X113029000Y-101174000D01*
X126494000Y-82826000D02*
X130370000Y-78950000D01*
X124357356Y-82826000D02*
X126494000Y-82826000D01*
X109750000Y-97433356D02*
X124357356Y-82826000D01*
X109750000Y-97895000D02*
X109750000Y-97433356D01*
X168526000Y-70134000D02*
X167340000Y-71320000D01*
X183634000Y-70134000D02*
X168526000Y-70134000D01*
X185000000Y-71500000D02*
X183634000Y-70134000D01*
X186000000Y-71500000D02*
X185000000Y-71500000D01*
X186000000Y-42344537D02*
X186000000Y-52500000D01*
X189344537Y-39000000D02*
X186000000Y-42344537D01*
X191810000Y-39000000D02*
X189344537Y-39000000D01*
X204500000Y-50000000D02*
X198000000Y-50000000D01*
X198000000Y-45500000D02*
X204500000Y-45500000D01*
X191810000Y-39000000D02*
X198000000Y-45190000D01*
X198000000Y-45190000D02*
X198000000Y-45500000D01*
X120500000Y-45695463D02*
X120500000Y-49000000D01*
X130941463Y-35254000D02*
X120500000Y-45695463D01*
X180444000Y-35254000D02*
X130941463Y-35254000D01*
X184190000Y-39000000D02*
X180444000Y-35254000D01*
X109750000Y-64895000D02*
X109750000Y-74250000D01*
D36*
X113500000Y-78000000D02*
X113840000Y-77660000D01*
D35*
X109750000Y-74250000D02*
X113500000Y-78000000D01*
X137500000Y-100297258D02*
X163614000Y-74183258D01*
X137500000Y-113500000D02*
X137500000Y-100297258D01*
X114500000Y-123831859D02*
X119966859Y-118365000D01*
X135635000Y-118365000D02*
X137000000Y-117000000D01*
X119966859Y-118365000D02*
X135635000Y-118365000D01*
X114500000Y-127000000D02*
X114500000Y-123831859D01*
X115500000Y-128000000D02*
X114500000Y-127000000D01*
X177000000Y-56500000D02*
X175000000Y-54500000D01*
X175000000Y-54500000D02*
X169310000Y-54500000D01*
X176000000Y-65000000D02*
X176000000Y-59500000D01*
X174500000Y-66500000D02*
X176000000Y-65000000D01*
X168668141Y-66500000D02*
X174500000Y-66500000D01*
X166691891Y-64523750D02*
X168668141Y-66500000D01*
X165435000Y-64523750D02*
X166691891Y-64523750D01*
D36*
X165000000Y-55000000D02*
X165000000Y-55500000D01*
X173101000Y-46899000D02*
X165000000Y-55000000D01*
X173101000Y-42291000D02*
X173101000Y-46899000D01*
X168000000Y-37190000D02*
X173101000Y-42291000D01*
X167000000Y-63000000D02*
X165435000Y-61435000D01*
X165435000Y-61435000D02*
X165435000Y-59443750D01*
X169000000Y-63000000D02*
X167000000Y-63000000D01*
X169500000Y-62500000D02*
X169000000Y-63000000D01*
X169500000Y-60000000D02*
X169500000Y-62500000D01*
D37*
X150000000Y-48576174D02*
X150000000Y-50000000D01*
X155302174Y-43274000D02*
X150000000Y-48576174D01*
X168197826Y-43274000D02*
X155302174Y-43274000D01*
X169226000Y-44302174D02*
X168197826Y-43274000D01*
X169226000Y-45317826D02*
X169226000Y-44302174D01*
X168507826Y-46036000D02*
X169226000Y-45317826D01*
X157231000Y-56676430D02*
X167871430Y-46036000D01*
X167871430Y-46036000D02*
X168507826Y-46036000D01*
X157231000Y-64231000D02*
X157231000Y-56676430D01*
X158000000Y-65000000D02*
X157231000Y-64231000D01*
D36*
X142190000Y-140500000D02*
X134000000Y-140500000D01*
X144690000Y-138000000D02*
X142190000Y-140500000D01*
X149690000Y-143000000D02*
X144690000Y-138000000D01*
X164500000Y-110000000D02*
X168719000Y-114219000D01*
X168719000Y-115879000D02*
X169880000Y-117040000D01*
X163500000Y-110000000D02*
X164500000Y-110000000D01*
X168719000Y-114219000D02*
X168719000Y-115879000D01*
X161000000Y-112500000D02*
X160000000Y-111500000D01*
X162500000Y-112500000D02*
X161000000Y-112500000D01*
X153500000Y-95000000D02*
X154500000Y-96000000D01*
X146000000Y-95000000D02*
X153500000Y-95000000D01*
X142500000Y-86000000D02*
X145500000Y-89000000D01*
X142000000Y-86000000D02*
X142500000Y-86000000D01*
X130370000Y-89110000D02*
X137110000Y-89110000D01*
X171259000Y-115879000D02*
X172420000Y-117040000D01*
X160200000Y-106500000D02*
X164000000Y-106500000D01*
X164000000Y-106500000D02*
X171259000Y-113759000D01*
X171259000Y-113759000D02*
X171259000Y-115879000D01*
X156500000Y-95500000D02*
X156500000Y-96000000D01*
X152500000Y-91500000D02*
X156500000Y-95500000D01*
X141810000Y-94190000D02*
X148500000Y-87500000D01*
X130370000Y-94190000D02*
X141810000Y-94190000D01*
X121660000Y-77660000D02*
X126000000Y-82000000D01*
X113840000Y-77660000D02*
X121660000Y-77660000D01*
X110000000Y-81500000D02*
X113500000Y-78000000D01*
D35*
X142899000Y-72899000D02*
X142899000Y-72864407D01*
X143500000Y-72500000D02*
X143000000Y-73000000D01*
X151000000Y-72500000D02*
X143500000Y-72500000D01*
X143000000Y-73000000D02*
X142899000Y-72899000D01*
D36*
X161099000Y-75742250D02*
X161099000Y-72481000D01*
X159420625Y-77420625D02*
X161099000Y-75742250D01*
X161099000Y-72481000D02*
X162260000Y-71320000D01*
X138586625Y-77420625D02*
X159420625Y-77420625D01*
X133083000Y-68842000D02*
X133083000Y-71917000D01*
X133083000Y-71917000D02*
X138586625Y-77420625D01*
X138125000Y-63800000D02*
X133083000Y-68842000D01*
X167000000Y-106500000D02*
X159000000Y-98500000D01*
X167500000Y-106500000D02*
X167000000Y-106500000D01*
D35*
X179250000Y-111750000D02*
X179250000Y-109250000D01*
X178500000Y-112500000D02*
X179250000Y-111750000D01*
X182750000Y-105750000D02*
X179250000Y-109250000D01*
X182750000Y-91250000D02*
X182750000Y-105750000D01*
X181540000Y-51040000D02*
X183000000Y-52500000D01*
X181540000Y-50960000D02*
X181540000Y-51040000D01*
X178500000Y-50960000D02*
X181540000Y-50960000D01*
D36*
X178140000Y-74500000D02*
X177500000Y-73860000D01*
X180000000Y-74500000D02*
X178140000Y-74500000D01*
X172500000Y-119500000D02*
X175500000Y-119500000D01*
X171000000Y-121000000D02*
X172500000Y-119500000D01*
X179500000Y-91000000D02*
X181500000Y-89000000D01*
X179500000Y-94000000D02*
X179500000Y-91000000D01*
X174000000Y-105500000D02*
X175000000Y-104500000D01*
X174000000Y-109000000D02*
X174000000Y-105500000D01*
X197847836Y-133899000D02*
X178101000Y-133899000D01*
X201282500Y-130464336D02*
X197847836Y-133899000D01*
X206802000Y-70320686D02*
X206802000Y-108720490D01*
X201282500Y-114239990D02*
X201282500Y-130464336D01*
X189981314Y-53500000D02*
X206802000Y-70320686D01*
X178500000Y-53500000D02*
X189981314Y-53500000D01*
X206802000Y-108720490D02*
X201282500Y-114239990D01*
X178101000Y-133899000D02*
X176500000Y-135500000D01*
X176500000Y-147000000D02*
X172500000Y-143000000D01*
X177500000Y-147000000D02*
X176500000Y-147000000D01*
X186500000Y-84500000D02*
X203500000Y-101500000D01*
X186500000Y-76000000D02*
X186500000Y-84500000D01*
X186500000Y-76000000D02*
X188500000Y-74000000D01*
X166940000Y-76000000D02*
X186500000Y-76000000D01*
X164800000Y-73860000D02*
X166940000Y-76000000D01*
D37*
X163880000Y-56690000D02*
X173500000Y-56690000D01*
X161690000Y-54500000D02*
X163880000Y-56690000D01*
D36*
X206151000Y-71651000D02*
X193500000Y-59000000D01*
X206151000Y-108450836D02*
X206151000Y-71651000D01*
X199955336Y-114646500D02*
X206151000Y-108450836D01*
X187384046Y-114646500D02*
X199955336Y-114646500D01*
X183829546Y-118201000D02*
X187384046Y-114646500D01*
X164319098Y-118201000D02*
X183829546Y-118201000D01*
X163639000Y-117520902D02*
X164319098Y-118201000D01*
X163639000Y-115879000D02*
X163639000Y-117520902D01*
X162260000Y-114500000D02*
X163639000Y-115879000D01*
D38*
X160000000Y-97000000D02*
X142500000Y-97000000D01*
X177500000Y-114500000D02*
X160000000Y-97000000D01*
D37*
X158500000Y-57690000D02*
X161690000Y-54500000D01*
X158500000Y-58000000D02*
X158500000Y-57690000D01*
X171500000Y-89500000D02*
X176000000Y-85000000D01*
X159000000Y-89500000D02*
X171500000Y-89500000D01*
X142000000Y-99500000D02*
X149000000Y-99500000D01*
X140000000Y-101500000D02*
X142000000Y-99500000D01*
X165000000Y-58000000D02*
X158000000Y-65000000D01*
X181500000Y-58000000D02*
X165000000Y-58000000D01*
X187000000Y-63500000D02*
X181500000Y-58000000D01*
X187000000Y-63500000D02*
X193500000Y-63500000D01*
X187000000Y-59000000D02*
X193500000Y-59000000D01*
X143500000Y-67000000D02*
X142500000Y-68000000D01*
X168000000Y-67000000D02*
X143500000Y-67000000D01*
D39*
X170500000Y-65000000D02*
X170500000Y-59500000D01*
D35*
X148500000Y-54500000D02*
X147000000Y-53000000D01*
X157500000Y-54500000D02*
X148500000Y-54500000D01*
X146971000Y-57471000D02*
X149000000Y-59500000D01*
X146971000Y-54302859D02*
X146971000Y-57471000D01*
X139500000Y-52500000D02*
X145168141Y-52500000D01*
X138000000Y-51000000D02*
X139500000Y-52500000D01*
X145168141Y-52500000D02*
X146971000Y-54302859D01*
X155000000Y-90000000D02*
X155000000Y-86000000D01*
X155000000Y-90000000D02*
X162500000Y-97500000D01*
X136730000Y-99270000D02*
X130370000Y-99270000D01*
X138000000Y-98000000D02*
X136730000Y-99270000D01*
X165986000Y-114008742D02*
X149977258Y-98000000D01*
X149977258Y-98000000D02*
X141000000Y-98000000D01*
X165986000Y-115686000D02*
X165986000Y-114008742D01*
X167340000Y-117040000D02*
X165986000Y-115686000D01*
X134000000Y-115500000D02*
X134186000Y-115686000D01*
X134186000Y-115686000D02*
X160906000Y-115686000D01*
X160906000Y-115686000D02*
X162260000Y-117040000D01*
X157180000Y-110680000D02*
X147000000Y-100500000D01*
X157180000Y-114500000D02*
X157180000Y-110680000D01*
D36*
X156500000Y-45500000D02*
X156500000Y-53000000D01*
X128500000Y-39500000D02*
X131040000Y-39500000D01*
X132500000Y-40960000D02*
X138275000Y-40960000D01*
X131040000Y-39500000D02*
X132500000Y-40960000D01*
X142355000Y-36880000D02*
X138275000Y-40960000D01*
X144000000Y-36880000D02*
X142355000Y-36880000D01*
X150899000Y-37481000D02*
X144601000Y-37481000D01*
X151500000Y-36880000D02*
X150899000Y-37481000D01*
X144601000Y-37481000D02*
X144000000Y-36880000D01*
X151810000Y-37190000D02*
X151500000Y-36880000D01*
X155500000Y-37190000D02*
X151810000Y-37190000D01*
X155810000Y-36880000D02*
X155500000Y-37190000D01*
X159500000Y-36880000D02*
X155810000Y-36880000D01*
X164000000Y-36880000D02*
X159500000Y-36880000D01*
X167690000Y-36880000D02*
X168000000Y-37190000D01*
X164000000Y-36880000D02*
X167690000Y-36880000D01*
X167209000Y-45601000D02*
X168000000Y-44810000D01*
X156291000Y-45601000D02*
X167209000Y-45601000D01*
X155500000Y-44810000D02*
X156291000Y-45601000D01*
X122749000Y-48711000D02*
X124000000Y-47460000D01*
X122749000Y-51251000D02*
X122749000Y-48711000D01*
X138125000Y-63800000D02*
X135298000Y-63800000D01*
X135298000Y-63800000D02*
X122749000Y-51251000D01*
X145943750Y-54556250D02*
X146000000Y-54500000D01*
X131565000Y-54556250D02*
X145943750Y-54556250D01*
X129500000Y-50000000D02*
X124000000Y-50000000D01*
X130023750Y-49476250D02*
X129500000Y-50000000D01*
X131565000Y-49476250D02*
X130023750Y-49476250D01*
D40*
X151414000Y-51126000D02*
X152540000Y-50000000D01*
X140626000Y-51126000D02*
X151414000Y-51126000D01*
X139500000Y-50000000D02*
X140626000Y-51126000D01*
D36*
X127355250Y-48275250D02*
X124000000Y-44920000D01*
X143195250Y-48275250D02*
X127355250Y-48275250D01*
X144920000Y-50000000D02*
X143195250Y-48275250D01*
X138976250Y-49476250D02*
X139500000Y-50000000D01*
X131565000Y-49476250D02*
X138976250Y-49476250D01*
X137576059Y-70500000D02*
X134500000Y-70500000D01*
X138993059Y-69083000D02*
X137576059Y-70500000D01*
X164204902Y-69083000D02*
X138993059Y-69083000D01*
D37*
X181580000Y-139120000D02*
X181580000Y-135500000D01*
X185460000Y-143000000D02*
X181580000Y-139120000D01*
D35*
X171234000Y-72506000D02*
X172420000Y-71320000D01*
X164476742Y-72506000D02*
X171234000Y-72506000D01*
X163614000Y-73368742D02*
X164476742Y-72506000D01*
X163614000Y-74183258D02*
X163614000Y-73368742D01*
X118000000Y-109500000D02*
X118000000Y-102000000D01*
D40*
X143976000Y-74896000D02*
X156144000Y-74896000D01*
X156144000Y-74896000D02*
X157180000Y-73860000D01*
X139580000Y-70500000D02*
X143976000Y-74896000D01*
D36*
X151209000Y-136899000D02*
X152310000Y-138000000D01*
X143297000Y-136899000D02*
X151209000Y-136899000D01*
X129898000Y-123500000D02*
X143297000Y-136899000D01*
X116000000Y-123500000D02*
X129898000Y-123500000D01*
D35*
X116990000Y-114510000D02*
X130370000Y-114510000D01*
X130810000Y-128000000D02*
X122000000Y-128000000D01*
X140810000Y-138000000D02*
X130810000Y-128000000D01*
X178225000Y-143000000D02*
X180765000Y-143000000D01*
D36*
X198250000Y-80250000D02*
X204750000Y-80250000D01*
X198250000Y-75750000D02*
X204750000Y-75750000D01*
X182500000Y-68000000D02*
X183500000Y-69000000D01*
X191500000Y-69000000D02*
X198250000Y-75750000D01*
X168120000Y-68000000D02*
X182500000Y-68000000D01*
X164800000Y-71320000D02*
X168120000Y-68000000D01*
X183500000Y-69000000D02*
X191500000Y-69000000D01*
X132991000Y-147549000D02*
X130540000Y-150000000D01*
X147332288Y-147549000D02*
X132991000Y-147549000D01*
X157881288Y-137000000D02*
X147332288Y-147549000D01*
X162500000Y-137000000D02*
X157881288Y-137000000D01*
X155981000Y-135899000D02*
X154880000Y-137000000D01*
X168481000Y-135899000D02*
X155981000Y-135899000D01*
X176500000Y-127880000D02*
X168481000Y-135899000D01*
D40*
X159500000Y-130500000D02*
X169000000Y-130500000D01*
X155500000Y-126500000D02*
X159500000Y-130500000D01*
X169000000Y-130500000D02*
X171000000Y-128500000D01*
D36*
X179979000Y-126279000D02*
X181580000Y-127880000D01*
X168141000Y-126279000D02*
X179979000Y-126279000D01*
X165920000Y-128500000D02*
X168141000Y-126279000D01*
D40*
X144000000Y-128000000D02*
X137000000Y-128000000D01*
X145225000Y-126775000D02*
X144000000Y-128000000D01*
X137000000Y-128000000D02*
X135500000Y-126500000D01*
X145225000Y-126500000D02*
X145225000Y-126775000D01*
X146725000Y-128000000D02*
X145225000Y-126500000D01*
X151500000Y-128000000D02*
X146725000Y-128000000D01*
X155500000Y-126500000D02*
X153000000Y-126500000D01*
X153000000Y-126500000D02*
X151500000Y-128000000D01*
M02*
