G04 #@! TF.GenerationSoftware,KiCad,Pcbnew,9.0.1*
G04 #@! TF.CreationDate,2025-04-14T15:22:14-05:00*
G04 #@! TF.ProjectId,cjm6842,636a6d36-3834-4322-9e6b-696361645f70,v1.0.1*
G04 #@! TF.SameCoordinates,Original*
G04 #@! TF.FileFunction,Soldermask,Top*
G04 #@! TF.FilePolarity,Negative*
%FSLAX46Y46*%
G04 Gerber Fmt 4.6, Leading zero omitted, Abs format (unit mm)*
G04 Created by KiCad (PCBNEW 9.0.1) date 2025-04-14 15:22:14*
%MOMM*%
%LPD*%
G01*
G04 APERTURE LIST*
G04 Aperture macros list*
%AMRoundRect*
0 Rectangle with rounded corners*
0 $1 Rounding radius*
0 $2 $3 $4 $5 $6 $7 $8 $9 X,Y pos of 4 corners*
0 Add a 4 corners polygon primitive as box body*
4,1,4,$2,$3,$4,$5,$6,$7,$8,$9,$2,$3,0*
0 Add four circle primitives for the rounded corners*
1,1,$1+$1,$2,$3*
1,1,$1+$1,$4,$5*
1,1,$1+$1,$6,$7*
1,1,$1+$1,$8,$9*
0 Add four rect primitives between the rounded corners*
20,1,$1+$1,$2,$3,$4,$5,0*
20,1,$1+$1,$4,$5,$6,$7,0*
20,1,$1+$1,$6,$7,$8,$9,0*
20,1,$1+$1,$8,$9,$2,$3,0*%
G04 Aperture macros list end*
%ADD10C,2.000000*%
%ADD11C,2.700000*%
%ADD12R,1.750000X1.750000*%
%ADD13C,1.750000*%
%ADD14C,1.400000*%
%ADD15O,1.400000X1.400000*%
%ADD16C,1.700000*%
%ADD17O,1.700000X1.700000*%
%ADD18O,1.600000X1.600000*%
%ADD19C,1.600000*%
%ADD20C,1.800000*%
%ADD21R,1.800000X1.800000*%
%ADD22R,1.700000X1.700000*%
%ADD23R,1.600000X2.400000*%
%ADD24O,1.600000X2.400000*%
%ADD25R,1.600000X1.600000*%
%ADD26C,4.318000*%
%ADD27R,2.032000X2.032000*%
%ADD28C,2.032000*%
%ADD29C,3.810000*%
%ADD30RoundRect,0.102000X0.889000X0.889000X-0.889000X0.889000X-0.889000X-0.889000X0.889000X-0.889000X0*%
%ADD31C,1.982000*%
%ADD32C,1.724000*%
%ADD33RoundRect,0.102000X-0.760000X0.760000X-0.760000X-0.760000X0.760000X-0.760000X0.760000X0.760000X0*%
G04 APERTURE END LIST*
D10*
X115250000Y-120250000D03*
X108750000Y-120250000D03*
X115250000Y-115750000D03*
X108750000Y-115750000D03*
X204750000Y-80250000D03*
X198250000Y-80250000D03*
X204750000Y-75750000D03*
X198250000Y-75750000D03*
X198000000Y-45500000D03*
X204500000Y-45500000D03*
X198000000Y-50000000D03*
X204500000Y-50000000D03*
X112750000Y-144250000D03*
X106250000Y-144250000D03*
X112750000Y-139750000D03*
X106250000Y-139750000D03*
D11*
X115700000Y-93995000D03*
X107300000Y-92795000D03*
X107300000Y-69995000D03*
X115700000Y-68795000D03*
D12*
X109750000Y-97895000D03*
D13*
X113250000Y-97895000D03*
X109750000Y-64895000D03*
D14*
X191810000Y-39000000D03*
D15*
X184190000Y-39000000D03*
D14*
X115000000Y-152000000D03*
D15*
X122620000Y-152000000D03*
D16*
X113500000Y-103725000D03*
D17*
X110960000Y-103725000D03*
D14*
X157310000Y-143000000D03*
D15*
X149690000Y-143000000D03*
D14*
X141620000Y-143000000D03*
D15*
X134000000Y-143000000D03*
D14*
X152310000Y-138000000D03*
D15*
X144690000Y-138000000D03*
D14*
X140810000Y-138000000D03*
D15*
X133190000Y-138000000D03*
D14*
X154880000Y-137000000D03*
D15*
X162500000Y-137000000D03*
D13*
X192282500Y-96600000D03*
X195782500Y-129600000D03*
D12*
X192282500Y-129600000D03*
D11*
X198232500Y-100500000D03*
X189832500Y-101700000D03*
X189832500Y-124500000D03*
X198232500Y-125700000D03*
D15*
X164000000Y-44500000D03*
D14*
X164000000Y-36880000D03*
D15*
X172000000Y-44500000D03*
D14*
X172000000Y-36880000D03*
D15*
X151500000Y-44500000D03*
D14*
X151500000Y-36880000D03*
D15*
X144000000Y-44500000D03*
D14*
X144000000Y-36880000D03*
D15*
X147500000Y-44000000D03*
D14*
X147500000Y-36380000D03*
D15*
X159500000Y-44500000D03*
D14*
X159500000Y-36880000D03*
D15*
X155500000Y-44810000D03*
D14*
X155500000Y-37190000D03*
D18*
X131565000Y-49476250D03*
D19*
X131565000Y-54556250D03*
D18*
X165435000Y-64523750D03*
D19*
X165435000Y-59443750D03*
D15*
X173500000Y-56690000D03*
D14*
X173500000Y-64310000D03*
D20*
X130540000Y-150000000D03*
D21*
X128000000Y-150000000D03*
D15*
X169310000Y-54500000D03*
D14*
X161690000Y-54500000D03*
D17*
X178500000Y-50960000D03*
D22*
X178500000Y-53500000D03*
D17*
X138275000Y-46040000D03*
X138275000Y-43500000D03*
D22*
X138275000Y-40960000D03*
D16*
X169960000Y-143000000D03*
D17*
X172500000Y-143000000D03*
D22*
X124000000Y-50000000D03*
D17*
X124000000Y-47460000D03*
X124000000Y-44920000D03*
D23*
X184120000Y-127880000D03*
D24*
X181580000Y-127880000D03*
X179040000Y-127880000D03*
X176500000Y-127880000D03*
X176500000Y-135500000D03*
X179040000Y-135500000D03*
X181580000Y-135500000D03*
X184120000Y-135500000D03*
D10*
X187000000Y-59000000D03*
X193500000Y-59000000D03*
X187000000Y-63500000D03*
X193500000Y-63500000D03*
D14*
X168000000Y-37190000D03*
D15*
X168000000Y-44810000D03*
D14*
X133190000Y-132500000D03*
D15*
X140810000Y-132500000D03*
D16*
X128500000Y-39500000D03*
D17*
X131040000Y-39500000D03*
D22*
X152540000Y-50000000D03*
D17*
X150000000Y-50000000D03*
X144920000Y-50000000D03*
D25*
X138125000Y-63800000D03*
D18*
X140665000Y-63800000D03*
X143205000Y-63800000D03*
X145745000Y-63800000D03*
X148285000Y-63800000D03*
X150825000Y-63800000D03*
X153365000Y-63800000D03*
X155905000Y-63800000D03*
X155905000Y-56180000D03*
X153365000Y-56180000D03*
X150825000Y-56180000D03*
X148285000Y-56180000D03*
X145745000Y-56180000D03*
X143205000Y-56180000D03*
X140665000Y-56180000D03*
X138125000Y-56180000D03*
D16*
X178225000Y-143000000D03*
D17*
X180765000Y-143000000D03*
D26*
X210500000Y-156000000D03*
X210500000Y-39000000D03*
X99500000Y-38500000D03*
X99500000Y-155500000D03*
D27*
X165920000Y-128500000D03*
D28*
X171000000Y-128500000D03*
D16*
X188000000Y-143000000D03*
D17*
X185460000Y-143000000D03*
D21*
X155500000Y-126500000D03*
D20*
X158040000Y-126500000D03*
D27*
X134500000Y-70500000D03*
D28*
X139580000Y-70500000D03*
D14*
X163120000Y-132500000D03*
D15*
X155500000Y-132500000D03*
D14*
X152310000Y-132500000D03*
D15*
X144690000Y-132500000D03*
D10*
X115500000Y-128000000D03*
X122000000Y-128000000D03*
X115500000Y-132500000D03*
X122000000Y-132500000D03*
D21*
X135500000Y-126500000D03*
D20*
X138040000Y-126500000D03*
D21*
X145225000Y-126500000D03*
D20*
X147765000Y-126500000D03*
D29*
X174820000Y-78315000D03*
D30*
X130370000Y-117050000D03*
D31*
X130370000Y-114510000D03*
X130370000Y-111970000D03*
X130370000Y-109430000D03*
X130370000Y-106890000D03*
X130370000Y-104350000D03*
X130370000Y-101810000D03*
X130370000Y-99270000D03*
X130370000Y-96730000D03*
X130370000Y-94190000D03*
X130370000Y-91650000D03*
X130370000Y-89110000D03*
X130370000Y-86570000D03*
X130370000Y-84030000D03*
X130370000Y-81490000D03*
X130370000Y-78950000D03*
D32*
X177500000Y-114500000D03*
X174960000Y-114500000D03*
X172420000Y-114500000D03*
X169880000Y-114500000D03*
X167340000Y-114500000D03*
X164800000Y-114500000D03*
X162260000Y-114500000D03*
X159720000Y-114500000D03*
X157180000Y-114500000D03*
X154640000Y-114500000D03*
X177500000Y-73860000D03*
X174960000Y-73860000D03*
X172420000Y-73860000D03*
X169880000Y-73860000D03*
X167340000Y-73860000D03*
X164800000Y-73860000D03*
X162260000Y-73860000D03*
X159720000Y-73860000D03*
X157180000Y-73860000D03*
X154640000Y-73860000D03*
X177500000Y-117040000D03*
X174960000Y-117040000D03*
X172420000Y-117040000D03*
X169880000Y-117040000D03*
X167340000Y-117040000D03*
X164800000Y-117040000D03*
X162260000Y-117040000D03*
X159720000Y-117040000D03*
X157180000Y-117040000D03*
X154640000Y-117040000D03*
X177500000Y-71320000D03*
X174960000Y-71320000D03*
X172420000Y-71320000D03*
X169880000Y-71320000D03*
X167340000Y-71320000D03*
X164800000Y-71320000D03*
X162260000Y-71320000D03*
X159720000Y-71320000D03*
X157180000Y-71320000D03*
D33*
X154640000Y-71320000D03*
M02*
