M48
; DRILL file {KiCad 9.0.1} date 2025-04-14T15:21:16-0500
; FORMAT={-:-/ absolute / metric / decimal}
; #@! TF.CreationDate,2025-04-14T15:21:16-05:00
; #@! TF.GenerationSoftware,Kicad,Pcbnew,9.0.1
; #@! TF.FileFunction,Plated,1,2,PTH
FMAT,2
METRIC
; #@! TA.AperFunction,Plated,PTH,ViaDrill
T1C0.400
; #@! TA.AperFunction,Plated,PTH,ComponentDrill
T2C0.700
; #@! TA.AperFunction,Plated,PTH,ComponentDrill
T3C0.800
; #@! TA.AperFunction,Plated,PTH,ComponentDrill
T4C0.890
; #@! TA.AperFunction,Plated,PTH,ComponentDrill
T5C0.900
; #@! TA.AperFunction,Plated,PTH,ComponentDrill
T6C1.000
; #@! TA.AperFunction,Plated,PTH,ComponentDrill
T7C1.016
; #@! TA.AperFunction,Plated,PTH,ComponentDrill
T8C1.100
; #@! TA.AperFunction,Plated,PTH,ComponentDrill
T9C1.200
; #@! TA.AperFunction,Plated,PTH,ComponentDrill
T10C1.270
; #@! TA.AperFunction,Plated,PTH,ComponentDrill
T11C3.175
%
G90
G05
T1
X110.0Y-81.5
X112.5Y-129.5
X116.0Y-123.5
X117.0Y-114.5
X118.0Y-102.0
X118.0Y-109.5
X120.5Y-49.0
X126.0Y-82.0
X126.0Y-113.0
X131.5Y-76.5
X134.0Y-115.5
X134.0Y-140.5
X135.5Y-76.5
X137.0Y-89.0
X137.0Y-117.0
X137.5Y-113.5
X138.0Y-51.0
X138.0Y-98.0
X139.5Y-50.0
X140.0Y-76.5
X140.0Y-101.5
X141.0Y-98.0
X142.0Y-86.0
X142.5Y-68.0
X142.5Y-97.0
X142.899Y-72.864
X145.5Y-89.0
X146.0Y-54.5
X146.0Y-95.0
X147.0Y-53.0
X147.0Y-100.5
X148.5Y-87.5
X149.0Y-59.5
X149.0Y-99.5
X151.0Y-72.5
X152.5Y-91.5
X154.5Y-81.0
X154.5Y-96.0
X155.0Y-86.0
X156.5Y-53.0
X156.5Y-96.0
X157.5Y-54.5
X158.0Y-65.0
X158.0Y-86.5
X158.5Y-58.0
X159.0Y-89.5
X159.0Y-98.5
X160.0Y-111.5
X160.2Y-106.5
X162.5Y-97.5
X162.5Y-112.5
X163.5Y-110.0
X164.205Y-69.083
X165.0Y-55.5
X167.5Y-106.5
X168.0Y-67.0
X169.5Y-60.0
X170.5Y-59.5
X170.5Y-65.0
X171.0Y-121.0
X174.0Y-109.0
X174.5Y-82.5
X175.0Y-104.5
X175.5Y-119.5
X176.0Y-59.5
X176.0Y-85.0
X177.0Y-56.5
X177.0Y-111.0
X177.5Y-147.0
X178.5Y-112.5
X179.0Y-114.0
X179.5Y-94.0
X180.0Y-74.5
X180.5Y-77.0
X181.5Y-89.0
X182.75Y-91.25
X183.0Y-52.5
X184.0Y-139.0
X184.5Y-90.5
X186.0Y-52.5
X186.0Y-71.5
X188.0Y-139.5
X188.5Y-74.0
X189.5Y-92.0
X194.0Y-94.0
X196.0Y-116.5
X200.0Y-107.5
X203.5Y-101.5
T2
X115.0Y-152.0
X122.62Y-152.0
X133.19Y-132.5
X133.19Y-138.0
X134.0Y-143.0
X140.81Y-132.5
X140.81Y-138.0
X141.62Y-143.0
X144.0Y-36.88
X144.0Y-44.5
X144.69Y-132.5
X144.69Y-138.0
X147.5Y-36.38
X147.5Y-44.0
X149.69Y-143.0
X151.5Y-36.88
X151.5Y-44.5
X152.31Y-132.5
X152.31Y-138.0
X154.88Y-137.0
X155.5Y-37.19
X155.5Y-44.81
X155.5Y-132.5
X157.31Y-143.0
X159.5Y-36.88
X159.5Y-44.5
X161.69Y-54.5
X162.5Y-137.0
X163.12Y-132.5
X164.0Y-36.88
X164.0Y-44.5
X168.0Y-37.19
X168.0Y-44.81
X169.31Y-54.5
X172.0Y-36.88
X172.0Y-44.5
X173.5Y-56.69
X173.5Y-64.31
X184.19Y-39.0
X191.81Y-39.0
T3
X131.565Y-49.476
X131.565Y-54.556
X138.125Y-56.18
X138.125Y-63.8
X140.665Y-56.18
X140.665Y-63.8
X143.205Y-56.18
X143.205Y-63.8
X145.745Y-56.18
X145.745Y-63.8
X148.285Y-56.18
X148.285Y-63.8
X150.825Y-56.18
X150.825Y-63.8
X153.365Y-56.18
X153.365Y-63.8
X155.905Y-56.18
X155.905Y-63.8
X165.435Y-59.444
X165.435Y-64.524
X176.5Y-127.88
X176.5Y-135.5
X179.04Y-127.88
X179.04Y-135.5
X181.58Y-127.88
X181.58Y-135.5
X184.12Y-127.88
X184.12Y-135.5
T4
X154.64Y-71.32
X154.64Y-73.86
X154.64Y-114.5
X154.64Y-117.04
X157.18Y-71.32
X157.18Y-73.86
X157.18Y-114.5
X157.18Y-117.04
X159.72Y-71.32
X159.72Y-73.86
X159.72Y-114.5
X159.72Y-117.04
X162.26Y-71.32
X162.26Y-73.86
X162.26Y-114.5
X162.26Y-117.04
X164.8Y-71.32
X164.8Y-73.86
X164.8Y-114.5
X164.8Y-117.04
X167.34Y-71.32
X167.34Y-73.86
X167.34Y-114.5
X167.34Y-117.04
X169.88Y-71.32
X169.88Y-73.86
X169.88Y-114.5
X169.88Y-117.04
X172.42Y-71.32
X172.42Y-73.86
X172.42Y-114.5
X172.42Y-117.04
X174.96Y-71.32
X174.96Y-73.86
X174.96Y-114.5
X174.96Y-117.04
X177.5Y-71.32
X177.5Y-73.86
X177.5Y-114.5
X177.5Y-117.04
T5
X128.0Y-150.0
X130.54Y-150.0
X135.5Y-126.5
X138.04Y-126.5
X145.225Y-126.5
X147.765Y-126.5
X155.5Y-126.5
X158.04Y-126.5
T6
X110.96Y-103.725
X113.5Y-103.725
X124.0Y-44.92
X124.0Y-47.46
X124.0Y-50.0
X128.5Y-39.5
X131.04Y-39.5
X138.275Y-40.96
X138.275Y-43.5
X138.275Y-46.04
X144.92Y-50.0
X150.0Y-50.0
X152.54Y-50.0
X169.96Y-143.0
X172.5Y-143.0
X178.225Y-143.0
X178.5Y-50.96
X178.5Y-53.5
X180.765Y-143.0
X185.46Y-143.0
X188.0Y-143.0
T7
X130.37Y-78.95
X130.37Y-81.49
X130.37Y-84.03
X130.37Y-86.57
X130.37Y-89.11
X130.37Y-91.65
X130.37Y-94.19
X130.37Y-96.73
X130.37Y-99.27
X130.37Y-101.81
X130.37Y-104.35
X130.37Y-106.89
X130.37Y-109.43
X130.37Y-111.97
X130.37Y-114.51
X130.37Y-117.05
T8
X106.25Y-139.75
X106.25Y-144.25
X108.75Y-115.75
X108.75Y-120.25
X112.75Y-139.75
X112.75Y-144.25
X115.25Y-115.75
X115.25Y-120.25
X115.5Y-128.0
X115.5Y-132.5
X122.0Y-128.0
X122.0Y-132.5
X187.0Y-59.0
X187.0Y-63.5
X193.5Y-59.0
X193.5Y-63.5
X198.0Y-45.5
X198.0Y-50.0
X198.25Y-75.75
X198.25Y-80.25
X204.5Y-45.5
X204.5Y-50.0
X204.75Y-75.75
X204.75Y-80.25
T9
X109.75Y-64.895
X109.75Y-97.895
X113.25Y-97.895
X192.282Y-96.6
X192.282Y-129.6
X195.782Y-129.6
T10
X134.5Y-70.5
X139.58Y-70.5
X165.92Y-128.5
X171.0Y-128.5
T11
X99.5Y-38.5
X99.5Y-155.5
X210.5Y-39.0
X210.5Y-156.0
M30
